<?xml version="1.0" encoding="UTF-8"?>
<svg viewBox="0 0 383 87.01" xmlns="http://www.w3.org/2000/svg">
<defs>
<style>.cls-1{fill:#088b45;}.cls-2{fill:#f17a21;}.cls-3{fill:#6e6f71;}</style>
</defs>
<title>BHIM</title>
<g data-name="Layer 2">
<g data-name="Layer 1">
<polygon class="cls-1" points="364.24 0 383 34.33 343.56 68.64"/>
<polygon class="cls-2" points="351.08 0 369.84 34.33 330.37 68.64"/>
<path class="cls-3" d="M91.71,66.38a9.11,9.11,0,0,0,3.64-4.83L101.6,41a4.78,4.78,0,0,0-.75-4.71,5.83,5.83,0,0,0-4.71-1.9A10,10,0,0,0,102,32.42a9,9,0,0,0,3.61-4.76l6.24-20.54a5.19,5.19,0,0,0-.61-4.95,5.63,5.63,0,0,0-4.75-2H25.12L4.44,68.33H85.83a10,10,0,0,0,5.88-2M35.88,13.52H89.49a5.38,5.38,0,0,1,3.41,2.4,8.89,8.89,0,0,1,.4,2.6,9.13,9.13,0,0,1-.11,1.4l-.16.46-.51,1.71a10,10,0,0,1-8.06,5.57H31.59ZM84.11,49.8A10.08,10.08,0,0,1,76.28,55h-53l4.26-14H81.06A5.13,5.13,0,0,1,85,44.64a7.12,7.12,0,0,1,.11,1.23c0,.21,0,.42,0,.63l0,.27Z"/>
<polygon class="cls-3" points="197.13 0.27 188.95 27.62 130.24 27.62 138.41 0.27 123.81 0.27 103.51 68.16 118.11 68.16 126.26 40.92 184.98 40.92 176.82 68.16 191.43 68.16 211.73 0.27"/>
<polygon class="cls-3" points="215.98 68.38 201.28 68.38 221.72 0.5 236.41 0.5"/>
<polygon class="cls-3" points="338.62 0.44 277.63 47.97 256.37 15.46 246.55 0.44 246.27 0.44 241.64 15.87 225.96 68.12 240.56 68.12 251.55 31.49 274.84 68.21 313.39 35.7 303.72 68.12 318.33 68.12 332.59 20.61 338.64 0.44"/>
<path class="cls-3" d="M0,86.6l2.61-10H5.53a10,10,0,0,1,1.82.11,2.11,2.11,0,0,1,.91.39,1.58,1.58,0,0,1,.6.89,2.34,2.34,0,0,1,0,1.23,2.74,2.74,0,0,1-.78,1.34,3.08,3.08,0,0,1-1.43.75,1.8,1.8,0,0,1,1.37.8,2.09,2.09,0,0,1,.16,1.68A3.41,3.41,0,0,1,7.6,84.9a3.33,3.33,0,0,1-.94.93,3.62,3.62,0,0,1-1.32.6,12.33,12.33,0,0,1-2.41.17Zm2.19-1.36h.65a11,11,0,0,0,1.5-.08,3,3,0,0,0,.84-.23,2.23,2.23,0,0,0,.68-.54,2.17,2.17,0,0,0,.38-.74,1.4,1.4,0,0,0,0-.84,1,1,0,0,0-.5-.55,2.38,2.38,0,0,0-.57-.18,7,7,0,0,0-.9,0H3Zm1.15-4.45h.73a4.79,4.79,0,0,0,2-.31,1.62,1.62,0,0,0,.83-1.08c.15-.55.08-.94-.21-1.15a3.39,3.39,0,0,0-1.86-.34H4.1Z"/>
<polygon class="cls-3" points="14.21 86.6 16.83 76.56 18.71 76.56 17.74 80.26 23.44 80.26 24.4 76.56 26.28 76.56 23.66 86.6 21.78 86.6 23.05 81.72 17.36 81.72 16.09 86.6"/>
<path class="cls-3" d="M38.84,86.6,38.21,84h-4.6l-2,2.59h-2L38,76.16,40.82,86.6Zm-4.17-3.95h3.22l-.58-2.29c0-.15-.06-.31-.09-.5s0-.4-.06-.64c-.11.22-.24.42-.35.61l-.36.53Z"/>
<path class="cls-3" d="M49.74,82.1l-1.18,4.5H46.8l2.62-10H52a9.82,9.82,0,0,1,1.76.12,2.24,2.24,0,0,1,1,.43,1.77,1.77,0,0,1,.6,1,2.86,2.86,0,0,1,0,1.26,3.46,3.46,0,0,1-1.16,1.88A4.06,4.06,0,0,1,52,82l2.8,4.57H52.63L50,82.1Zm.44-1.27h.35a4.81,4.81,0,0,0,2-.3,1.58,1.58,0,0,0,.77-1.07,1,1,0,0,0-.22-1.17A3.33,3.33,0,0,0,51.27,78h-.34Z"/>
<path class="cls-3" d="M68.39,86.6,67.75,84H63.18l-2,2.59h-2l8.3-10.44L70.38,86.6Zm-4.18-3.95h3.24l-.59-2.29a5.07,5.07,0,0,1-.09-.5c0-.19,0-.4-.06-.64a7,7,0,0,1-.35.61l-.35.53Z"/>
<polygon class="cls-3" points="81.46 77.94 79.2 86.6 77.33 86.6 79.57 77.94 76.51 77.94 76.87 76.56 84.88 76.56 84.51 77.94"/>
<polygon class="cls-3" points="98.39 86.6 101 76.56 102.89 76.56 100.26 86.6"/>
<path class="cls-3" d="M107.86,86.6l2.72-10.44,5.76,6.13c.14.17.29.37.45.55s.31.43.47.68l1.81-7h1.74L118.1,87l-5.87-6.24c-.15-.17-.3-.34-.44-.53a4.89,4.89,0,0,1-.38-.59l-1.82,7Z"/>
<polygon class="cls-3" points="131.73 77.94 129.48 86.6 127.59 86.6 129.85 77.94 126.78 77.94 127.15 76.56 135.15 76.56 134.8 77.94"/>
<polygon class="cls-3" points="138.85 86.6 141.47 76.56 147.94 76.56 147.57 77.94 143 77.94 142.34 80.46 146.91 80.46 146.54 81.89 141.97 81.89 141.12 85.14 145.7 85.14 145.32 86.6"/>
<path class="cls-3" d="M155.3,82.1l-1.18,4.5h-1.76l2.61-10h2.63a9.54,9.54,0,0,1,1.75.12,2.33,2.33,0,0,1,1,.43,1.82,1.82,0,0,1,.59,1,2.72,2.72,0,0,1,0,1.26,3.41,3.41,0,0,1-1.16,1.88,4,4,0,0,1-2.19.83l2.79,4.57h-2.12l-2.68-4.5Zm.44-1.27h.35a4.81,4.81,0,0,0,2-.3,1.61,1.61,0,0,0,.77-1.07c.14-.55.07-.94-.22-1.17a3.33,3.33,0,0,0-1.85-.34h-.34Z"/>
<polygon class="cls-3" points="166.31 86.6 168.93 76.56 175.38 76.56 175.02 77.94 170.45 77.94 169.8 80.44 174.37 80.44 174 81.88 169.42 81.88 168.2 86.6"/>
<path class="cls-3" d="M186.75,86.6,186.11,84h-4.58l-2,2.59h-2l8.32-10.44,2.88,10.44Zm-4.17-3.95h3.23l-.59-2.29c0-.15-.05-.31-.08-.5a5.59,5.59,0,0,1-.06-.64c-.12.22-.25.42-.37.61a5.41,5.41,0,0,1-.35.53Z"/>
<path class="cls-3" d="M205.7,79a4.62,4.62,0,0,0-1.45-.88,5.25,5.25,0,0,0-1.81-.3,5.67,5.67,0,0,0-3.36,1.06,4.8,4.8,0,0,0-1.9,2.73,2.85,2.85,0,0,0,.47,2.69,3.24,3.24,0,0,0,2.64,1.06,6.89,6.89,0,0,0,2-.32,9,9,0,0,0,2-1l-.47,1.84a7.37,7.37,0,0,1-1.84.71,8.18,8.18,0,0,1-2,.23,6.82,6.82,0,0,1-2.35-.37,4.37,4.37,0,0,1-1.7-1.11,3.67,3.67,0,0,1-.86-1.7,4.78,4.78,0,0,1,.1-2.08,6.08,6.08,0,0,1,1-2.07A7.63,7.63,0,0,1,198,77.81a8.22,8.22,0,0,1,2.26-1.12,8.41,8.41,0,0,1,2.5-.37,6.65,6.65,0,0,1,1.89.25,5.52,5.52,0,0,1,1.58.77Z"/>
<polygon class="cls-3" points="210.94 86.6 213.55 76.56 220 76.56 219.64 77.94 215.07 77.94 214.41 80.46 218.99 80.46 218.61 81.89 214.04 81.89 213.18 85.14 217.77 85.14 217.39 86.6"/>
<polygon class="cls-3" points="234.2 86.6 236.82 76.56 243.27 76.56 242.91 77.94 238.34 77.94 237.69 80.44 242.26 80.44 241.88 81.88 237.31 81.88 236.08 86.6"/>
<path class="cls-3" d="M260.75,81.6a5.79,5.79,0,0,1-1,2,7.48,7.48,0,0,1-1.79,1.7,8.6,8.6,0,0,1-2.31,1.15,8.05,8.05,0,0,1-2.46.39,6.11,6.11,0,0,1-2.27-.4,4.36,4.36,0,0,1-1.71-1.14,3.62,3.62,0,0,1-.9-1.69,4.14,4.14,0,0,1,.07-2,6,6,0,0,1,1-2,7.87,7.87,0,0,1,1.79-1.7,8.75,8.75,0,0,1,2.31-1.15,8.12,8.12,0,0,1,2.48-.38,6.32,6.32,0,0,1,2.27.38,4.5,4.5,0,0,1,1.7,1.15,3.67,3.67,0,0,1,.9,1.72,4.34,4.34,0,0,1-.06,2m-2,0a3.3,3.3,0,0,0,.06-1.46,2.66,2.66,0,0,0-.6-1.21,3,3,0,0,0-1.14-.82,4.33,4.33,0,0,0-1.56-.28,5.25,5.25,0,0,0-1.69.28,5.8,5.8,0,0,0-1.58.82A4.72,4.72,0,0,0,251,80.14a4.27,4.27,0,0,0-.7,1.46,3,3,0,0,0-.06,1.43,2.51,2.51,0,0,0,.6,1.22,3,3,0,0,0,1.16.82,4.2,4.2,0,0,0,1.55.28,5.48,5.48,0,0,0,1.68-.28,5.8,5.8,0,0,0,1.58-.82A5.58,5.58,0,0,0,258.1,83a4.36,4.36,0,0,0,.68-1.43"/>
<path class="cls-3" d="M269.42,82.1l-1.17,4.5h-1.76l2.61-10h2.62a9.67,9.67,0,0,1,1.76.12,2.35,2.35,0,0,1,1,.43,1.76,1.76,0,0,1,.59,1,2.46,2.46,0,0,1,0,1.26,3.48,3.48,0,0,1-1.17,1.88,4,4,0,0,1-2.2.83l2.8,4.57h-2.13l-2.68-4.5Zm.44-1.27h.35a4.9,4.9,0,0,0,2.06-.3,1.61,1.61,0,0,0,.77-1.07c.14-.55.07-.94-.22-1.17A3.35,3.35,0,0,0,271,78h-.34Z"/>
<path class="cls-3" d="M300.92,81.63c0-.07,0-.28.08-.64s.06-.53.08-.72c-.11.22-.24.45-.38.68s-.32.46-.51.7L295.77,87l-1.61-5.47c-.06-.22-.12-.44-.16-.65s-.06-.42-.07-.62c-.07.21-.15.43-.23.65a6.88,6.88,0,0,1-.35.73l-2.53,4.95h-1.73l5.47-10.47,1.75,6.33c0,.1.06.27.12.51s.1.53.16.87a12.69,12.69,0,0,1,.81-1.11l.21-.27,5-6.33.07,10.47h-1.75Z"/>
<path class="cls-3" d="M322.21,81.6a5.73,5.73,0,0,1-1,2,7.67,7.67,0,0,1-1.79,1.7,8.75,8.75,0,0,1-2.31,1.15,8.11,8.11,0,0,1-2.47.39,6.15,6.15,0,0,1-2.27-.4,4.36,4.36,0,0,1-1.71-1.14,3.71,3.71,0,0,1-.9-1.69,4.27,4.27,0,0,1,.07-2,6,6,0,0,1,1-2,7.62,7.62,0,0,1,1.78-1.7,8.75,8.75,0,0,1,2.31-1.15,8.07,8.07,0,0,1,2.48-.38,6.23,6.23,0,0,1,2.26.38,4.46,4.46,0,0,1,1.71,1.15,3.67,3.67,0,0,1,.9,1.72,4.1,4.1,0,0,1-.07,2m-1.95,0a3.3,3.3,0,0,0,.06-1.46,2.66,2.66,0,0,0-.6-1.21,3.14,3.14,0,0,0-1.16-.82,4.18,4.18,0,0,0-1.54-.28,5.27,5.27,0,0,0-1.7.28,6,6,0,0,0-1.59.82,5.19,5.19,0,0,0-1.22,1.21,4.1,4.1,0,0,0-.7,1.46,3.18,3.18,0,0,0-.06,1.43,2.6,2.6,0,0,0,.6,1.22,3,3,0,0,0,1.16.82,4.22,4.22,0,0,0,1.54.28,5.44,5.44,0,0,0,1.69-.28,5.8,5.8,0,0,0,1.58-.82A5.14,5.14,0,0,0,319.56,83a4.42,4.42,0,0,0,.7-1.43"/>
<path class="cls-3" d="M328,86.6l2.71-10.44,5.76,6.13.46.55c.16.21.31.43.47.68l1.82-7h1.73L338.2,87l-5.87-6.24a5.62,5.62,0,0,1-.44-.53c-.14-.2-.27-.39-.39-.59l-1.82,7Z"/>
<polygon class="cls-3" points="345.84 86.6 348.45 76.56 354.92 76.56 354.55 77.94 349.97 77.94 349.33 80.46 353.9 80.46 353.52 81.89 348.95 81.89 348.1 85.14 352.69 85.14 352.3 86.6"/>
<path class="cls-3" d="M361.83,86.6,363,82l-2.48-5.44h2l1.54,3.4c0,.08.08.21.14.34s.09.3.13.47l.36-.46q.18-.21.36-.39l3.36-3.36h1.88L364.89,82l-1.19,4.6Z"/>
</g>
</g>
</svg>
